<svg width="128" height="128" viewBox="0 0 128 128" fill="none" xmlns="http://www.w3.org/2000/svg">
<path d="M64.244 124.488C97.5158 124.488 124.488 97.5158 124.488 64.244C124.488 30.9722 97.5158 4 64.244 4C30.9722 4 4 30.9722 4 64.244C4 97.5158 30.9722 124.488 64.244 124.488Z" fill="url(#paint0_linear)"/>
<path opacity="0.2" d="M64.244 112.202C90.7305 112.202 112.202 90.7305 112.202 64.244C112.202 37.7575 90.7305 16.286 64.244 16.286C37.7575 16.286 16.286 37.7575 16.286 64.244C16.286 90.7305 37.7575 112.202 64.244 112.202Z" fill="white"/>
<path opacity="0.5" d="M56.312 71.024C53.2291 69.5543 50.7377 67.0801 49.2467 64.0074C47.7557 60.9348 47.354 57.4465 48.1073 54.1154C48.8607 50.7843 50.7244 47.8083 53.3925 45.6763C56.0605 43.5443 59.3743 42.3829 62.7895 42.3829C66.2048 42.3829 69.5185 43.5443 72.1866 45.6763C74.8546 47.8083 76.7183 50.7843 77.4717 54.1154C78.2251 57.4465 77.8233 60.9348 76.3324 64.0074C74.8414 67.0801 72.3499 69.5543 69.267 71.024L72.825 88.813H52.754L56.312 71.024Z" fill="white"/>
<defs>
<linearGradient id="paint0_linear" x1="-5.88002" y1="156.899" x2="112.198" y2="4" gradientUnits="userSpaceOnUse">
<stop stop-color="#FFCFAA"/>
<stop offset="1" stop-color="#FA6EB9"/>
</linearGradient>
</defs>
</svg>
